# File created by Blade
# Date/Time:  Tue Jan 27 17:16:36 2015
#---------------------------------------------------------
:version 1.10
:name HOM
:units
  mass 1.0
  length 1.000000
  angle deg
:documentation
     Acclaim Skeleton File
:root
   axis xyz
   order TX TY TZ RX RY RZ
   position 0.000000 0.000000 0.000000
   orientation 0 0 0
:bonedata
   begin
      id 1
      name Spine_dum
      direction 0.000000 1.000000 0.000000
      length 7.539951
      axis 0.0 0.0 0.0 xyz
   end
   begin
      id 2
      name LeftUpLeg_dum
      direction 1.000000 0.000000 0.000000
      length 3.345476
      axis 0.0 0.0 0.0 xyz
   end
   begin
      id 3
      name RightUpLeg_dum
      direction -1.000000 0.000000 0.000000
      length 3.345476
      axis 0.0 0.0 0.0 xyz
   end
   begin
      id 4
      name Spine
      direction 0.000000 1.000000 0.000000
      length 0.000000
      axis 0.0 0.0 0.0 xyz
      dof rx ry rz
   end
   begin
      id 5
      name Spine_dum1
      direction 0.000000 1.000000 0.000000
      length 15.093809
      axis 0.0 0.0 0.0 xyz
   end
   begin
      id 6
      name Spine_dum2
      direction 0.000000 1.000000 0.000000
      length 9.738928
      axis 0.0 0.0 0.0 xyz
   end
   begin
      id 7
      name Spine_dum3
      direction 0.000000 1.000000 0.000000
      length 9.738928
      axis 0.0 0.0 0.0 xyz
   end
   begin
      id 8
      name Head
      direction 0.000000 1.000000 0.000000
      length 4.527550
      axis 0.0 0.0 0.0 xyz
      dof rx ry rz
   end
   begin
      id 9
      name LeftShoulder
      direction 1.000000 0.000000 0.000000
      length 7.084015
      axis 0.0 0.0 -90.0 xyz
      dof rx ry rz
   end
   begin
      id 10
      name LeftArm
      direction 1.000000 0.000000 0.000000
      length 10.259319
      axis 0.0 0.0 -90.0 xyz
      dof rx ry rz
   end
   begin
      id 11
      name LeftForeArm
      direction 1.000000 0.000000 0.000000
      length 9.896984
      axis 0.0 0.0 -90.0 xyz
      dof ry rz rx
   end
   begin
      id 12
      name LeftHand
      direction 0.000000 0.000000 0.000000
      length 0.000000
      axis 0.0 0.0 -90.0 xyz
      dof rx ry rz
   end
   begin
      id 13
      name LeftHand_dum1
      direction 0.000000 0.000000 0.000000
      length 0.000000
      axis 0.0 0.0 -90.0 xyz
   end
   begin
      id 14
      name LeftHand_dum2
      direction 1.000000 0.000000 0.000000
      length 3.937000
      axis 0.0 0.0 -90.0 xyz
   end
   begin
      id 15
      name LeftHandThumb1
      direction 0.000000 0.000000 1.000000
      length 3.937000
      axis 0.0 0.0 -90.0 xyz
      dof rx rz ry
   end
   begin
      id 16
      name RightShoulder
      direction -1.000000 0.000000 0.000000
      length 7.084015
      axis 0.0 0.0 90.0 xyz
      dof rx ry rz
   end
   begin
      id 17
      name RightArm
      direction -1.000000 0.000000 0.000000
      length 10.259319
      axis 0.0 0.0 90.0 xyz
      dof rx ry rz
   end
   begin
      id 18
      name RightForeArm
      direction -1.000000 0.000000 0.000000
      length 9.896984
      axis 0.0 0.0 90.0 xyz
      dof ry rz rx
   end
   begin
      id 19
      name RightHand
      direction 0.000000 0.000000 0.000000
      length 0.000000
      axis 0.0 0.0 90.0 xyz
      dof rx ry rz
   end
   begin
      id 20
      name RightHand_dum1
      direction 0.000000 0.000000 0.000000
      length 0.000000
      axis 0.0 0.0 90.0 xyz
   end
   begin
      id 21
      name RightHand_dum2
      direction -1.000000 0.000000 0.000000
      length 3.937000
      axis 0.0 0.0 90.0 xyz
   end
   begin
      id 22
      name RightHandThumb1
      direction 0.000000 0.000000 1.000000
      length 3.937000
      axis 0.0 0.0 90.0 xyz
      dof rx rz ry
   end
   begin
      id 23
      name LeftUpLeg
      direction 0.000000 -1.000000 0.000000
      length 19.114733
      axis 0.0 0.0 0.0 xyz
      dof rx ry rz
   end
   begin
      id 24
      name LeftLeg
      direction 0.000000 -1.000000 0.000000
      length 16.045604
      axis 0.0 0.0 0.0 xyz
      dof rx ry rz
   end
   begin
      id 25
      name LeftFoot
      direction 0.000000 -0.258819 0.965926
      length 5.543155
      axis 15.0 0.0 0.0 xyz
      dof rx ry rz
   end
   begin
      id 26
      name LeftToeBase
      direction 0.000000 0.000000 1.000000
      length 2.952750
      axis 0.0 0.0 0.0 xyz
      dof rx ry rz
   end
   begin
      id 27
      name RightUpLeg
      direction 0.000000 -1.000000 0.000000
      length 19.114733
      axis 0.0 0.0 0.0 xyz
      dof rx ry rz
   end
   begin
      id 28
      name RightLeg
      direction 0.000000 -1.000000 0.000000
      length 16.045604
      axis 0.0 0.0 0.0 xyz
      dof rx ry rz
   end
   begin
      id 29
      name RightFoot
      direction 0.000000 -0.258819 0.965926
      length 5.543155
      axis 15.0 0.0 0.0 xyz
      dof rx ry rz
   end
   begin
      id 30
      name RightToeBase
      direction 0.000000 0.000000 1.000000
      length 2.952750
      axis 0.0 0.0 0.0 xyz
      dof rx ry rz
   end
:hierarchy
   begin
      root Spine_dum LeftUpLeg_dum RightUpLeg_dum
      Spine_dum Spine
      LeftUpLeg_dum LeftUpLeg
      RightUpLeg_dum RightUpLeg
      Spine Spine_dum1 Spine_dum2 Spine_dum3
      Spine_dum1 Head
      Spine_dum2 LeftShoulder
      Spine_dum3 RightShoulder
      LeftShoulder LeftArm
      LeftArm LeftForeArm
      LeftForeArm LeftHand
      LeftHand LeftHand_dum1 LeftHand_dum2
      LeftHand_dum1 LeftHandThumb1
      RightShoulder RightArm
      RightArm RightForeArm
      RightForeArm RightHand
      RightHand RightHand_dum1 RightHand_dum2
      RightHand_dum1 RightHandThumb1
      LeftUpLeg LeftLeg
      LeftLeg LeftFoot
      LeftFoot LeftToeBase
      RightUpLeg RightLeg
      RightLeg RightFoot
      RightFoot RightToeBase
   end

# File created by Blade
# Date/Time:  Tue Jan 27 17:16:27 2015
# Frame Rate: 120.000 fps
#------------------------------------------------------
:FULLY-SPECIFIED
:DEGREES
1947
root -3.457186 36.400238 1.102783 4.828175 29.645792 5.279748
Spine 7.238940 5.800703 -4.332537
Head -4.905130 -0.884458 5.981937
LeftShoulder 1.283435 -16.135941 10.330447
LeftArm 4.475956 -13.290893 -34.727834
LeftForeArm -0.397276 0.000000 60.802109
LeftHand -14.578264 -0.000000 55.780390
LeftHandThumb1 -26.253704 0.000000 33.147579
RightShoulder -1.245293 -14.586233 1.829888
RightArm 21.926524 -15.316189 47.872320
RightForeArm -168.668620 -0.000000 34.563080
RightHand 1.407164 -0.000000 4.372369
RightHandThumb1 -24.326973 -0.000000 -32.862282
LeftUpLeg -74.546634 23.161556 -6.651745
LeftLeg 97.800367 -0.000000 -0.000000
LeftFoot -7.038832 5.664264 -28.883635
LeftToeBase 15.525743 -0.000000 -0.000000
RightUpLeg -14.453261 -16.494419 5.065391
RightLeg 26.191686 -0.000000 -0.000000
RightFoot -21.464695 -16.539982 3.586040
RightToeBase 3.918898 -0.000000 -0.000000
1948
root -3.470142 36.403863 1.110499 4.962210 29.992209 5.362084
Spine 7.162243 5.648093 -4.378560
Head -4.878222 -0.686598 5.900855
LeftShoulder 1.389010 -16.285012 10.337485
LeftArm 4.764666 -13.089224 -34.859151
LeftForeArm -0.314826 -0.000000 60.612843
LeftHand -14.471223 -0.000000 55.531702
LeftHandThumb1 -26.253704 0.000000 33.147579
RightShoulder -1.267726 -14.544053 1.793039
RightArm 21.693571 -15.244351 47.974422
RightForeArm -168.695018 -0.000000 34.519953
RightHand 1.326361 -0.000000 4.296733
RightHandThumb1 -24.326973 -0.000000 -32.862282
LeftUpLeg -74.727659 23.386241 -6.848595
LeftLeg 98.284524 -0.000000 -0.000000
LeftFoot -7.071867 5.675360 -28.900369
LeftToeBase 15.456205 -0.000000 -0.000000
RightUpLeg -14.525937 -16.630816 5.063585
RightLeg 26.158826 -0.000000 -0.000000
RightFoot -21.509409 -16.710369 3.687152
RightToeBase 3.947886 -0.000000 -0.000000
1949
root -3.485078 36.407663 1.120880 5.098948 30.333502 5.434658
Spine 7.063361 5.509264 -4.430950
Head -4.878409 -0.516238 5.878116
LeftShoulder 1.506611 -16.363985 10.354373
LeftArm 5.071518 -12.956358 -35.003869
LeftForeArm -0.288212 -0.000000 60.463515
LeftHand -14.409666 -0.000000 55.542852
LeftHandThumb1 -26.253704 0.000000 33.147579
RightShoulder -1.289438 -14.547410 1.767204
RightArm 21.492510 -15.173255 48.046607
RightForeArm -168.834886 0.000000 34.417062
RightHand 1.241362 0.000000 4.448470
RightHandThumb1 -24.326973 -0.000000 -32.862282
LeftUpLeg -74.927907 23.647492 -7.033609
LeftLeg 98.773233 -0.000000 -0.000000
LeftFoot -7.139528 5.611696 -29.017538
LeftToeBase 15.555851 -0.000000 -0.000000
RightUpLeg -14.591383 -16.715157 5.074769
RightLeg 26.103703 -0.000000 -0.000000
RightFoot -21.555364 -16.927233 3.787583
RightToeBase 3.945824 -0.000000 -0.000000
1950
root -3.501059 36.409543 1.130959 5.232775 30.661928 5.504477
Spine 6.967792 5.391857 -4.476320
Head -4.831061 -0.369635 5.851546
LeftShoulder 1.633459 -16.455698 10.372468
LeftArm 5.413266 -12.804351 -35.167199
LeftForeArm -0.225240 -0.000000 60.268621
LeftHand -14.441253 0.000000 55.712550
LeftHandThumb1 -26.253704 0.000000 33.147579
RightShoulder -1.332874 -14.553085 1.726731
RightArm 21.302993 -15.146616 48.124161
RightForeArm -168.811371 -0.000000 34.317994
RightHand 1.213881 -0.000000 4.454498
RightHandThumb1 -24.326973 -0.000000 -32.862282
LeftUpLeg -75.143515 23.946051 -7.219394
LeftLeg 99.313772 -0.000000 -0.000000
LeftFoot -7.112667 5.659244 -28.887900
LeftToeBase 15.405498 -0.000000 -0.000000
RightUpLeg -14.665619 -16.806562 5.091865
RightLeg 26.066035 -0.000000 -0.000000
RightFoot -21.590512 -17.144491 3.848117
RightToeBase 3.930009 -0.000000 -0.000000
